<svg width="15" height="17" viewBox="0 0 15 17" fill="none" xmlns="http://www.w3.org/2000/svg">
<path d="M12.0656 11.3323C11.6296 11.3326 11.199 11.4267 10.8054 11.6078C10.4117 11.7889 10.0647 12.0524 9.78978 12.3793L5.56497 9.75798C5.76657 9.36667 5.87149 8.93556 5.87149 8.49849C5.87149 8.06143 5.76657 7.63032 5.56497 7.23901L9.78978 4.61771C10.2634 5.17754 10.941 5.541 11.6834 5.63344C12.4258 5.72587 13.1767 5.54027 13.7818 5.11475C14.387 4.68922 14.8004 4.05608 14.9373 3.34537C15.0741 2.63465 14.924 1.90031 14.5177 1.29316C14.1114 0.68602 13.4797 0.252167 12.7525 0.0807103C12.0253 -0.0907463 11.2577 0.0132101 10.6074 0.371228C9.95709 0.729246 9.47341 1.31415 9.25571 2.0058C9.03802 2.69746 9.10283 3.44336 9.43683 4.09031L5.21202 6.7116C4.82979 6.25725 4.31124 5.92837 3.72762 5.77014C3.144 5.61191 2.52397 5.63211 1.95272 5.82796C1.38147 6.0238 0.887042 6.38569 0.537385 6.86388C0.187728 7.34207 0 7.9131 0 8.49849C0 9.08389 0.187728 9.65492 0.537385 10.1331C0.887042 10.6113 1.38147 10.9732 1.95272 11.169C2.52397 11.3649 3.144 11.3851 3.72762 11.2268C4.31124 11.0686 4.82979 10.7397 5.21202 10.2854L9.43683 12.9067C9.15325 13.4587 9.06369 14.0848 9.18172 14.6904C9.29976 15.2959 9.61895 15.8478 10.0909 16.2624C10.5629 16.6771 11.162 16.9318 11.7974 16.9881C12.4328 17.0444 13.0699 16.8992 13.6121 16.5745C14.1543 16.2497 14.5722 15.7632 14.8024 15.1885C15.0326 14.6138 15.0625 13.9823 14.8877 13.3897C14.7129 12.7971 14.3428 12.2757 13.8336 11.9044C13.3243 11.5332 12.7037 11.3323 12.0656 11.3323ZM12.0656 0.62673C12.517 0.62673 12.9583 0.755998 13.3336 0.998187C13.709 1.24038 14.0015 1.58461 14.1742 1.98735C14.347 2.3901 14.3922 2.83327 14.3041 3.26082C14.2161 3.68837 13.9987 4.08111 13.6795 4.38935C13.3603 4.6976 12.9536 4.90752 12.5109 4.99257C12.0681 5.07761 11.6092 5.03396 11.1922 4.86714C10.7752 4.70032 10.4187 4.41781 10.1679 4.05535C9.91712 3.69289 9.78326 3.26675 9.78326 2.83082C9.78326 2.24626 10.0237 1.68564 10.4517 1.27229C10.8798 0.858946 11.4603 0.62673 12.0656 0.62673ZM2.93619 10.7026C2.48478 10.7026 2.04351 10.5733 1.66818 10.3311C1.29285 10.0889 1.00031 9.74471 0.827564 9.34196C0.654817 8.93922 0.609619 8.49605 0.697684 8.0685C0.78575 7.64094 1.00312 7.24821 1.32232 6.93996C1.64151 6.63172 2.04819 6.4218 2.49092 6.33675C2.93366 6.2517 3.39256 6.29535 3.80961 6.46218C4.22665 6.629 4.58311 6.9115 4.8339 7.27396C5.08469 7.63643 5.21854 8.06256 5.21854 8.49849C5.21854 9.08306 4.97808 9.64368 4.55006 10.057C4.12203 10.4704 3.54151 10.7026 2.93619 10.7026ZM12.0656 16.3703C11.6142 16.3703 11.1729 16.241 10.7976 15.9988C10.4223 15.7566 10.1297 15.4124 9.95699 15.0096C9.78425 14.6069 9.73905 14.1637 9.82711 13.7362C9.91518 13.3086 10.1326 12.9159 10.4517 12.6076C10.7709 12.2994 11.1776 12.0895 11.6204 12.0044C12.0631 11.9194 12.522 11.963 12.939 12.1298C13.3561 12.2967 13.7125 12.5792 13.9633 12.9416C14.2141 13.3041 14.348 13.7302 14.348 14.1662C14.348 14.7507 14.1075 15.3113 13.6795 15.7247C13.2515 16.138 12.6709 16.3703 12.0656 16.3703Z" fill="black"/>
</svg>
