<svg width="42" height="36" viewBox="0 0 42 36" fill="none" xmlns="http://www.w3.org/2000/svg">
<path d="M41.4763 19.6189C41.4819 21.7558 40.9826 23.8638 40.0192 25.7712C38.8768 28.0569 37.1207 29.9794 34.9474 31.3234C32.7742 32.6674 30.2697 33.3798 27.7144 33.3808C25.5775 33.3863 23.4695 32.8871 21.5621 31.9236L12.3335 34.9998L15.4097 25.7712C14.4462 23.8638 13.947 21.7558 13.9525 19.6189C13.9535 17.0636 14.6659 14.5591 16.0099 12.3859C17.3539 10.2126 19.2764 8.45647 21.5621 7.31412C23.4695 6.35068 25.5775 5.85141 27.7144 5.85698H28.524C31.8986 6.04316 35.086 7.46754 37.4759 9.85741C39.8658 12.2473 41.2901 15.4347 41.4763 18.8093V19.6189Z" fill="white" stroke="black" stroke-linecap="round" stroke-linejoin="round"/>
<path d="M0.999905 11.7037C0.995571 13.3658 1.38389 15.0053 2.13323 16.4889C3.02172 18.2666 4.38762 19.7619 6.07792 20.8072C7.76822 21.8525 9.71617 22.4066 11.7036 22.4074C13.3656 22.4117 15.0052 22.0234 16.4887 21.274L23.6665 23.6666L21.2739 16.4889C22.0233 15.0053 22.4116 13.3658 22.4072 11.7037C22.4065 9.7163 21.8524 7.76835 20.8071 6.07805C19.7618 4.38775 18.2665 3.02186 16.4887 2.13337C15.0052 1.38402 13.3656 0.995702 11.7036 1.00004H11.0739C8.44922 1.14484 5.97013 2.25269 4.11135 4.11148C2.25256 5.97026 1.14471 8.44935 0.999905 11.0741V11.7037Z" fill="white" stroke="black" stroke-linecap="round" stroke-linejoin="round"/>
</svg>
