<svg width="36" height="36" viewBox="0 0 36 36" fill="none" xmlns="http://www.w3.org/2000/svg">
<path d="M31.4901 1.19141H4.29014C2.41237 1.19141 0.890137 2.71364 0.890137 4.59141V11.3914C0.890137 13.2692 2.41237 14.7914 4.29014 14.7914H31.4901C33.3679 14.7914 34.8901 13.2692 34.8901 11.3914V4.59141C34.8901 2.71364 33.3679 1.19141 31.4901 1.19141Z" stroke="black" stroke-linecap="round" stroke-linejoin="round"/>
<path d="M31.4901 21.5913H4.29014C2.41237 21.5913 0.890137 23.1135 0.890137 24.9913V31.7913C0.890137 33.6691 2.41237 35.1913 4.29014 35.1913H31.4901C33.3679 35.1913 34.8901 33.6691 34.8901 31.7913V24.9913C34.8901 23.1135 33.3679 21.5913 31.4901 21.5913Z" stroke="black" stroke-linecap="round" stroke-linejoin="round"/>
<path d="M7.68994 7.99121H7.70694" stroke="black" stroke-linecap="round" stroke-linejoin="round"/>
<path d="M7.68994 28.3916H7.70694" stroke="black" stroke-linecap="round" stroke-linejoin="round"/>
</svg>
