<svg width="183" height="40" viewBox="0 0 183 40" fill="none" xmlns="http://www.w3.org/2000/svg">
<path fill-rule="evenodd" clip-rule="evenodd" d="M4.3706 3.72024V16.9434H12.0208C15.0832 16.9434 17.4328 16.2278 19.0682 14.8097C20.4925 13.6053 21.2047 12.0799 21.2047 10.2218C21.2047 5.8872 18.7247 3.72024 13.7717 3.72024H4.3706ZM4.3706 20.6582V35.7387H12.5667C18.9807 35.7387 22.1863 33.3687 22.1863 28.635C22.1863 26.1584 21.2576 24.21 19.4002 22.7919C17.5401 21.3676 15.0439 20.6582 11.9136 20.6582H4.3706ZM0 39.4535V0H14.5368C17.8863 0 20.5652 0.928701 22.5699 2.79153C24.5739 4.64894 25.5759 6.96322 25.5759 9.72624C25.5759 14.2462 23.3499 17.2747 18.9114 18.7947L18.9678 18.9073C21.1857 19.4532 23.0064 20.6412 24.428 22.4585C25.8461 24.2827 26.5556 26.4103 26.5556 28.8535C26.5556 35.9234 21.7878 39.4528 12.2408 39.4528L0 39.4535ZM36.755 22.6283H51.1817C51.1817 19.9657 50.5823 17.8436 49.3807 16.2563C48.1784 14.6746 46.5213 13.881 44.41 13.881C42.0767 13.881 40.2648 14.663 38.9722 16.2278C37.6776 17.7933 36.9403 19.927 36.755 22.6283ZM52.9326 31.8039L55.9889 33.3857C54.8239 35.4291 53.5877 36.943 52.2795 37.9226C50.3461 39.3075 47.9394 40 45.063 40C41.6015 40 38.7644 38.8405 36.5405 36.5051C33.9879 33.882 32.7157 30.1325 32.7157 25.2467C32.7157 20.6928 33.7625 17.0961 35.8561 14.4614C37.9498 11.8165 40.7644 10.4927 44.2973 10.4927C47.469 10.4927 50.0161 11.5117 51.9468 13.5551C54.0609 15.8062 55.1158 19.094 55.1158 23.3886V26.0172H36.6504C36.6504 29.1081 37.4576 31.658 39.0822 33.6335C40.7006 35.6213 42.6958 36.6117 45.063 36.6117C48.5253 36.6111 51.1451 35.0062 52.9326 31.8039ZM61.6772 39.4535V11.0385H65.6119V16.6677H65.7219C66.8841 14.5897 68.1054 13.0928 69.381 12.1865C70.8752 11.1336 72.7306 10.6047 74.9566 10.6047V14.5395C72.5894 14.5734 70.656 15.3955 69.1645 16.999C67.7769 18.4179 66.5949 20.6582 65.6126 23.7151V39.4542L61.6772 39.4535ZM77.3768 34.5955L80.4922 32.2425C82.5356 35.1528 85.2484 36.6111 88.6346 36.6111C90.6414 36.6111 92.1892 36.1209 93.2815 35.1359C94.2611 34.2974 94.7567 33.2228 94.7567 31.9166C94.7567 29.9798 93.2985 28.4883 90.3827 27.4354L82.4059 24.7002C79.5241 23.2813 78.1419 21.0974 78.2519 18.1423C78.3252 15.7051 79.2145 13.8076 80.9314 12.4628C82.6429 11.1179 84.8804 10.4587 87.6523 10.4927C89.5097 10.5266 91.3562 11.0161 93.1967 11.9394C95.0371 12.8742 96.4274 14.0452 97.3758 15.4627L94.6433 17.8666C92.4621 15.2156 90.0161 13.8816 87.323 13.8816C83.9001 13.8816 82.1867 15.2883 82.1867 18.092C82.1867 19.7295 83.6082 21.0356 86.4507 22.0207C91.4411 23.6982 94.1002 24.6269 94.4268 24.8068C97.2665 26.3716 98.6881 28.6736 98.6881 31.6967C98.6881 34.3192 97.6718 36.3965 95.6291 37.922C93.8049 39.3069 91.5137 39.9993 88.7446 39.9993C83.8642 39.9993 80.0726 38.1983 77.3768 34.5955ZM105.215 0H109.15V14.8653H109.256C111.848 11.9496 114.651 10.492 117.677 10.492C120.008 10.492 121.905 11.1173 123.357 12.3494C125.035 13.807 125.87 15.9576 125.87 18.7947V39.4535H121.938V18.908C121.938 15.553 120.39 13.8816 117.291 13.8816C114.561 13.8816 111.847 15.3168 109.149 18.1986V39.4542H105.214L105.215 0ZM135.301 39.4535V0H139.237V25.4096L150.79 11.0385H155.575L147.213 21.5305L156.667 39.4535H152.025L144.483 24.9195L139.237 30.9309V39.4535H135.301ZM177.705 31.9166V24.0973C168.747 25.6676 164.263 28.3817 164.263 32.2425C164.263 33.4808 164.753 34.5167 165.741 35.3497C166.723 36.1942 167.795 36.6104 168.96 36.6104C170.351 36.6104 171.859 36.1657 173.497 35.2764C175.136 34.3823 176.54 33.2615 177.705 31.9166ZM164.587 18.3052L161.148 16.5041C163.371 12.4967 166.923 10.4927 171.803 10.4927C174.535 10.4927 176.774 11.1342 178.526 12.4064C180.607 13.9319 181.643 16.1382 181.643 19.0207V33.3409C181.643 35.7387 181.862 37.7767 182.301 39.4542H178.251L177.814 35.5249C175.121 38.5085 171.988 40 168.417 40C166.117 40 164.226 39.3469 162.735 38.0353C161.13 36.6111 160.331 34.6634 160.331 32.1868C160.331 29.0905 161.637 26.6703 164.263 24.9201C166.886 23.1693 171.364 21.7342 177.705 20.6025V19.0716C177.705 15.6155 175.757 13.8816 171.86 13.8816C168.18 13.881 165.758 15.3555 164.587 18.3052Z" fill="#4B4B4B"/>
</svg>
