<svg width="112" height="40" viewBox="0 0 112 40" fill="none" xmlns="http://www.w3.org/2000/svg">
<path fill-rule="evenodd" clip-rule="evenodd" d="M99.4209 26.1517H100.249V26.9795H99.4209V26.1517ZM110.511 32.0005H111.339V32.8824H110.511V32.0005ZM99.4209 28.2483H100.249V32.8277H99.4209V28.2483ZM105.379 32.8283H104.497V30.2354C104.497 29.2975 104.222 28.8559 103.503 28.8559C102.732 28.8559 102.29 29.4629 102.29 30.5109V32.8289H101.408V28.2495H102.18V29.0773C102.511 28.4703 103.063 28.1394 103.78 28.1394C104.829 28.1394 105.38 28.8017 105.38 30.0699L105.379 32.8283ZM109.517 29.1308C109.242 28.966 108.91 28.9112 108.524 28.9112C107.586 28.9112 106.924 29.5183 106.924 30.5109C106.924 31.5036 107.532 32.1659 108.524 32.1659C108.856 32.1659 109.187 32.1112 109.573 31.9451V32.6622C109.242 32.8283 108.8 32.883 108.36 32.883C106.98 32.883 106.042 31.9451 106.042 30.5651C106.042 29.1308 106.979 28.1929 108.414 28.1929C108.855 28.1929 109.242 28.2489 109.572 28.4137L109.517 29.1308ZM2.31797 35.4759C2.92499 35.4759 3.36596 35.9723 3.36596 36.8554C3.36596 37.7374 2.92499 38.2896 2.31797 38.2896C1.71095 38.2896 1.26938 37.7933 1.26938 36.8554C1.26938 35.9723 1.71036 35.4759 2.31797 35.4759ZM2.31797 34.8689C1.21463 34.8689 0.497515 35.642 0.497515 36.9102C0.497515 38.1795 1.21463 38.8967 2.31797 38.8967C3.47666 38.8967 4.13842 38.1795 4.13842 36.9102C4.13842 35.642 3.47606 34.8689 2.31797 34.8689ZM5.84878 36.4686C6.23501 36.4686 6.51114 36.8554 6.51114 37.4065C6.51114 37.9588 6.23561 38.3444 5.79344 38.3444C5.4078 38.3444 5.13167 37.9588 5.13167 37.4065C5.13167 36.7995 5.40721 36.4686 5.84878 36.4686ZM5.13167 38.4003C5.35246 38.7318 5.62799 38.8967 6.06957 38.8967C6.73133 38.8967 7.2836 38.2896 7.2836 37.4065C7.2836 36.4686 6.78728 35.9175 6.06957 35.9175C5.62799 35.9175 5.24176 36.1383 5.07632 36.5245V36.0282H4.41456V40H5.13167V38.4003ZM8.3316 34.6481V36.4138C8.49704 36.0824 8.82792 35.9175 9.2695 35.9175C9.93126 35.9175 10.2627 36.3591 10.2627 37.131V38.8419H9.54563V37.297C9.54563 36.7995 9.38019 36.5239 8.99396 36.5239C8.60773 36.5239 8.33219 36.8554 8.33219 37.4059V38.8413H7.61448V34.6475L8.3316 34.6481ZM11.697 36.0282H12.3593V36.5245H11.697V37.7939C11.697 38.1795 11.8077 38.345 12.0832 38.345C12.1933 38.345 12.304 38.345 12.3587 38.2902L12.4141 38.8425C12.1933 38.8425 12.0279 38.8973 11.9178 38.8973C11.2006 38.8973 10.9799 38.5658 10.9799 37.7939V36.5245H10.4282V36.0282H10.9799V35.3111L11.697 35.0903V36.0282ZM13.5728 34.6481V36.4138C13.7936 36.0824 14.0691 35.9175 14.5107 35.9175C15.1724 35.9175 15.5039 36.3591 15.5039 37.131V38.8419H14.7862V37.297C14.7862 36.7995 14.6208 36.5239 14.2345 36.5239C13.8483 36.5239 13.5728 36.8554 13.5728 37.4059V38.8413H12.8557V34.6475L13.5728 34.6481ZM17.3797 37.4624H17.6005V37.6273C17.6005 38.0689 17.325 38.4003 16.9387 38.4003C16.8805 38.4012 16.8227 38.3904 16.7687 38.3685C16.7147 38.3466 16.6657 38.3141 16.6245 38.273C16.5833 38.2318 16.5508 38.1828 16.529 38.1288C16.5071 38.0748 16.4963 38.017 16.4972 37.9588C16.4972 37.6273 16.7727 37.4624 17.3797 37.4624ZM18.3176 37.1869C18.3176 36.3037 17.9314 35.9175 17.1036 35.9175C16.7721 35.9175 16.4412 35.9723 16.1103 36.1383V36.6346C16.3601 36.4849 16.647 36.4084 16.9381 36.4138C17.3797 36.4138 17.5999 36.6346 17.5999 37.0209V37.0768H17.269C16.2764 37.0768 15.7794 37.4071 15.7794 38.0147C15.7794 38.511 16.1109 38.8967 16.7173 38.8967C17.1036 38.8967 17.4351 38.6759 17.6552 38.3444V38.8419H18.3176V37.1869ZM18.7592 38.8419H19.4763V34.6481H18.7592V38.8419ZM23.4487 35.9175C24.0557 35.9175 24.3866 36.3591 24.3866 37.131V38.8419H23.6695V37.297C23.6695 36.7995 23.504 36.5239 23.1731 36.5239C22.7869 36.5239 22.5661 36.8554 22.5661 37.4059V38.8413H21.849V37.2964C21.849 36.7989 21.6836 36.5233 21.3527 36.5233C20.9665 36.5233 20.6903 36.8548 20.6903 37.4053V38.8407H19.9726V36.0264H20.635V36.5227C20.8558 36.1371 21.1867 35.9157 21.6276 35.9157C22.0139 35.9157 22.29 36.1365 22.4554 36.5227C22.6762 36.1383 23.0077 35.9175 23.4487 35.9175ZM24.8282 34.7588H25.5453V35.4212H24.8282V34.7588ZM24.8282 36.0282H25.5453V38.8425H24.8282V36.0282ZM28.0834 36.6346C27.918 36.5787 27.6972 36.4686 27.5312 36.4686C26.9795 36.4686 26.6486 36.8554 26.6486 37.4065C26.6486 37.9588 26.9801 38.3444 27.5312 38.3444C27.752 38.3444 27.9174 38.2337 28.1382 38.1248L28.1935 38.7318C27.918 38.7866 27.6419 38.8967 27.3657 38.8967C26.4278 38.8967 25.8762 38.2896 25.8762 37.4065C25.8762 36.5787 26.4832 35.9175 27.3657 35.9175C27.6966 35.9175 27.9727 36.0282 28.1382 36.0824L28.0834 36.6346ZM31.835 37.4624H32.0558V37.6273C32.0558 38.0689 31.7797 38.4003 31.3935 38.4003C31.3352 38.4011 31.2775 38.3903 31.2235 38.3683C31.1696 38.3464 31.1206 38.3139 31.0794 38.2728C31.0383 38.2316 31.0058 38.1826 30.9839 38.1287C30.962 38.0747 30.9511 38.017 30.9519 37.9588C30.9519 37.6273 31.228 37.4624 31.835 37.4624ZM32.7729 37.1869C32.7729 36.3037 32.3867 35.9175 31.5589 35.9175C31.228 35.9175 30.8971 35.9723 30.5657 36.1383V36.6346C30.8154 36.4849 31.1023 36.4084 31.3935 36.4138C31.835 36.4138 32.0558 36.6346 32.0558 37.0209V37.0768H31.7243C30.7311 37.0768 30.2348 37.4071 30.2348 38.0147C30.2348 38.511 30.5657 38.8967 31.1727 38.8967C31.5589 38.8967 31.8898 38.6759 32.1106 38.3444V38.8419H32.7723L32.7729 37.1869ZM35.9175 38.8419H35.1451V37.297C35.1451 36.7995 34.9796 36.5239 34.5934 36.5239C34.2072 36.5239 33.9316 36.8554 33.9316 37.4059V38.8413H33.2139V36.027H33.8763V36.5233C34.0971 36.1377 34.4279 35.9163 34.8689 35.9163C35.5307 35.9163 35.9169 36.3579 35.9169 37.1298L35.9175 38.8419ZM37.5725 36.4686C38.0141 36.4686 38.2896 36.8001 38.2896 37.4065C38.2896 37.9588 38.0141 38.2896 37.6279 38.2896C37.1869 38.2896 36.9108 37.9582 36.9108 37.4065C36.9108 36.7995 37.2416 36.4686 37.5725 36.4686ZM38.345 34.6481V36.4138C38.0694 36.0824 37.7933 35.9175 37.3523 35.9175C36.6906 35.9175 36.1936 36.4686 36.1936 37.3517C36.1936 38.2896 36.69 38.8419 37.3523 38.8419C37.8487 38.8419 38.1801 38.6759 38.4003 38.2343V38.8419H39.0627V34.6481H38.345ZM42.3174 35.5319H42.6483C43.1446 35.5319 43.3654 35.7527 43.3654 36.1389C43.3654 36.5793 43.0898 36.8001 42.5935 36.8001H42.3174V35.5319ZM41.5455 34.9796V38.8419H42.318V37.3517H42.7042C43.6421 37.3517 44.1384 36.9102 44.1384 36.1383C44.1384 35.3652 43.6974 34.9796 42.7042 34.9796H41.5455ZM45.7381 37.4624H45.9589V37.6273C45.9589 38.0689 45.6833 38.4003 45.2971 38.4003C45.021 38.4003 44.8008 38.1795 44.8008 37.9588C44.8002 37.6273 45.1311 37.4624 45.7381 37.4624ZM46.6766 37.1869C46.6766 36.3037 46.2904 35.9175 45.4625 35.9175C45.1311 35.9175 44.8002 35.9723 44.4693 36.1383V36.6346C44.7191 36.4849 45.0059 36.4084 45.2971 36.4138C45.7387 36.4138 45.9589 36.6346 45.9589 37.0209V37.0768H45.5732C44.6353 37.0768 44.1384 37.4071 44.1384 38.0147C44.1384 38.511 44.4699 38.8967 45.0763 38.8967C45.4625 38.8967 45.794 38.6759 46.0142 38.3444V38.8419H46.6766V37.1869ZM48.8279 36.6346C48.7172 36.5787 48.6625 36.5787 48.5518 36.5787C48.1102 36.5787 47.8347 36.9102 47.8347 37.5166V38.8419H47.1176V36.0276H47.7793V36.5787C47.9448 36.1383 48.2209 35.9175 48.6071 35.9175C48.6625 35.9175 48.7726 35.9723 48.8833 35.9723L48.8279 36.6346ZM50.9245 37.131H49.6004C49.6557 36.6894 49.9313 36.4138 50.2621 36.4138C50.6484 36.4138 50.9245 36.6894 50.9245 37.131ZM51.5869 37.4065C51.5869 36.4686 51.0905 35.9175 50.3181 35.9175C49.4903 35.9175 48.8839 36.5245 48.8839 37.3517C48.8839 38.3444 49.4909 38.8967 50.4288 38.8967C50.7597 38.8967 51.0905 38.8419 51.3667 38.7318V38.1795C51.0905 38.2902 50.815 38.4003 50.5389 38.4003C49.9872 38.4003 49.6563 38.0689 49.601 37.6273H51.5869V37.4065ZM54.6214 38.8419H53.9036V37.297C53.9036 36.7995 53.6829 36.5239 53.2966 36.5239C52.9104 36.5239 52.6343 36.8554 52.6343 37.4059V38.8413H51.9172V36.027H52.5795V36.5233C52.8003 36.1377 53.1312 35.9163 53.5722 35.9163C54.2345 35.9163 54.6208 36.3579 54.6208 37.1298L54.6214 38.8419ZM56.1663 36.0282H56.8274V36.5245H56.1663V37.7939C56.1663 38.1795 56.277 38.345 56.5519 38.345C56.6078 38.345 56.7167 38.345 56.8274 38.2902V38.8425C56.6626 38.8425 56.4972 38.8973 56.3311 38.8973C55.6693 38.8973 55.3932 38.5658 55.3932 37.7939V36.5245H54.8415V36.0282H55.4486V35.3111L56.1663 35.0903V36.0282ZM59.0347 37.131H57.7106C57.7653 36.6894 57.9861 36.4138 58.373 36.4138C58.7592 36.4138 58.98 36.6894 59.0347 37.131ZM59.6971 37.4065C59.6971 36.4686 59.2008 35.9175 58.373 35.9175C57.544 35.9175 56.9935 36.5245 56.9935 37.3517C56.9935 38.3444 57.5446 38.8967 58.4825 38.8967C58.8693 38.8967 59.2008 38.8419 59.4204 38.7318V38.1795C59.2008 38.2902 58.924 38.4003 58.5925 38.4003C58.0962 38.4003 57.7106 38.0689 57.7106 37.6273H59.6971V37.4065ZM61.7383 36.6346C61.6276 36.5787 61.5735 36.5787 61.4628 36.5787C61.0212 36.5787 60.7457 36.9102 60.7457 37.5166V38.8419H60.0274V36.0276H60.6897V36.5787C60.8546 36.1383 61.1313 35.9175 61.5175 35.9175C61.5735 35.9175 61.6824 35.9723 61.7383 35.9723V36.6346ZM63.3933 37.4624H63.6689V37.6273C63.6689 38.0689 63.3386 38.4003 62.9518 38.4003C62.8935 38.4011 62.8358 38.3903 62.7818 38.3683C62.7279 38.3464 62.6789 38.3139 62.6377 38.2728C62.5966 38.2316 62.5641 38.1826 62.5422 38.1287C62.5203 38.0747 62.5094 38.017 62.5102 37.9588C62.5102 37.6273 62.7869 37.4624 63.3933 37.4624ZM64.3318 37.1869C64.3318 36.3037 63.9462 35.9175 63.1184 35.9175C62.7869 35.9175 62.456 35.9723 62.1246 36.1383V36.6346C62.456 36.4686 62.6768 36.4138 62.9524 36.4138C63.3939 36.4138 63.6695 36.6346 63.6695 37.0209V37.0768H63.2838C62.2912 37.0768 61.7937 37.4071 61.7937 38.0147C61.7937 38.511 62.1805 38.8967 62.7316 38.8967C63.1731 38.8967 63.4487 38.6759 63.6695 38.3444L63.7254 38.8419H64.3324L64.3318 37.1869ZM64.8835 38.8419H65.6006V34.6481H64.8835V38.8419ZM68.8553 34.9796V36.5245H70.3455V34.9796H71.1173V38.8419H70.3455V37.131H68.8553V38.8419H68.0834V34.9796H68.8553ZM73.4894 37.131H72.1653C72.2213 36.6894 72.4968 36.4138 72.8277 36.4138C73.2139 36.4138 73.4347 36.6894 73.4894 37.131ZM74.1524 37.4065C74.1524 36.4686 73.6561 35.9175 72.8283 35.9175C72.0005 35.9175 71.4488 36.5245 71.4488 37.3517C71.4488 38.3444 72.0011 38.8967 72.939 38.8967C73.3246 38.8967 73.6561 38.8419 73.9316 38.7318V38.1795C73.6561 38.2902 73.3794 38.4003 73.1038 38.4003C72.5515 38.4003 72.2219 38.0689 72.1659 37.6273H74.1524V37.4065ZM75.8634 37.4624H76.1389V37.6273C76.1389 38.0689 75.8074 38.4003 75.4765 38.4003C75.1456 38.4003 74.9802 38.1795 74.9802 37.9588C74.9796 37.6273 75.3111 37.4624 75.8634 37.4624ZM76.856 37.1869C76.856 36.3037 76.4704 35.9175 75.5866 35.9175C75.2551 35.9175 74.9796 35.9723 74.6487 36.1383V36.6346C74.8817 36.4924 75.1489 36.4161 75.4218 36.4138C75.8634 36.4138 76.1389 36.6346 76.1389 37.0209V37.0768H75.7533C74.7594 37.0768 74.2631 37.4071 74.2631 38.0147C74.2631 38.511 74.6487 38.8967 75.201 38.8967C75.6426 38.8967 75.9729 38.6759 76.1936 38.3444V38.8419H76.856V37.1869ZM77.4077 38.8419H78.1248V34.6481H77.4077V38.8419ZM79.7804 36.0282H80.4975V36.5245H79.7804V37.7939C79.7804 38.1795 79.8911 38.345 80.2208 38.345C80.2767 38.345 80.3868 38.345 80.4975 38.2902V38.8425C80.3315 38.8425 80.166 38.8973 80.0012 38.8973C79.3388 38.8973 79.0633 38.5658 79.0633 37.7939V36.5245H78.511V36.0282H79.118V35.3111L79.7804 35.0903V36.0282ZM81.6562 34.6481V36.4138C81.8758 36.0824 82.2073 35.9175 82.5941 35.9175C83.2553 35.9175 83.6415 36.3591 83.6415 37.131V38.8419H82.8696V37.297C82.8696 36.7995 82.7036 36.5239 82.3174 36.5239C81.9311 36.5239 81.6562 36.8554 81.6562 37.4059V38.8413H80.9379V34.6475L81.6562 34.6481ZM88.994 35.6967C88.6625 35.586 88.3869 35.4759 88.056 35.4759C87.2282 35.4759 86.6766 36.0282 86.6766 36.9102C86.6766 37.738 87.2288 38.2896 88.1108 38.2896C88.3875 38.2896 88.6631 38.1789 88.994 38.0688L89.0487 38.6759C88.7172 38.7866 88.3875 38.8967 88.056 38.8967C86.6766 38.8967 85.9035 38.1248 85.9035 36.9102C85.9035 35.6967 86.6766 34.8689 88.0001 34.8689C88.3869 34.8689 88.7172 35.0338 88.994 35.0897V35.6967ZM90.9245 37.4624H91.1453V37.6273C91.1453 38.0689 90.8686 38.4003 90.4829 38.4003C90.4247 38.4011 90.3669 38.3903 90.313 38.3683C90.2591 38.3464 90.2101 38.3139 90.1689 38.2728C90.1277 38.2316 90.0952 38.1826 90.0733 38.1287C90.0514 38.0747 90.0405 38.017 90.0413 37.9588C90.0413 37.6273 90.3181 37.4624 90.9245 37.4624ZM91.8624 37.1869C91.8624 36.3037 91.4768 35.9175 90.649 35.9175C90.3175 35.9175 89.9866 35.9723 89.6551 36.1383V36.6346C89.9866 36.4686 90.2074 36.4138 90.4829 36.4138C90.9245 36.4138 91.1453 36.6346 91.1453 37.0209V37.0768H90.8138C89.8212 37.0768 89.3236 37.4071 89.3236 38.0147C89.3236 38.511 89.6551 38.8967 90.2615 38.8967C90.6484 38.8967 90.9787 38.6759 91.1994 38.3444V38.8419H91.8618V37.1869H91.8624ZM94.0143 36.6346C93.9596 36.5787 93.8495 36.5787 93.7935 36.5787C93.2972 36.5787 93.0217 36.9102 93.0217 37.5166V38.8419H92.3046V36.0276H92.9657V36.5787C93.1318 36.1383 93.4073 35.9175 93.7935 35.9175C93.8495 35.9175 93.9596 35.9723 94.0703 35.9723L94.0143 36.6346ZM96.1109 37.131H94.7868C94.8415 36.6894 95.1171 36.4138 95.5039 36.4138C95.8354 36.4138 96.1109 36.6894 96.1109 37.131ZM96.7721 37.4065C96.7721 36.4686 96.3317 35.9175 95.5039 35.9175C94.6761 35.9175 94.0697 36.5245 94.0697 37.3517C94.0697 38.3444 94.6767 38.8967 95.6146 38.8967C96.0002 38.8967 96.2758 38.8419 96.5525 38.7318V38.1795C96.2758 38.2902 96.0002 38.4003 95.7247 38.4003C95.1724 38.4003 94.8415 38.0689 94.7868 37.6273H96.7721V37.4065ZM43.7522 23.0619C43.7522 20.4142 44.9662 15.5033 50.7037 15.5033C56.4972 15.5033 57.6552 20.4142 57.6552 23.0619C57.6552 25.7095 56.4977 30.5645 50.7037 30.5645C44.9662 30.5651 43.7522 25.7101 43.7522 23.0619ZM39.6144 23.0619C39.6144 28.1376 43.0898 33.4347 50.7037 33.4347C58.3735 33.4347 61.849 28.1382 61.849 23.0619C61.849 17.9308 58.3735 12.6343 50.7037 12.6343C43.0898 12.6343 39.6144 17.9308 39.6144 23.0619ZM67.3663 32.8824H63.3386V13.6275H67.1449V16.4966H67.2556C68.8553 14.1792 70.9519 13.1865 73.987 13.1865C74.4833 13.1865 74.7041 13.1865 75.0355 13.2966V16.7173H73.4894C69.7384 16.7173 67.3663 19.0901 67.3663 21.9591V32.8824ZM96.3865 32.8283H92.3587V20.6897C92.3587 17.269 91.2 15.5587 87.2283 15.5587C84.9662 15.5587 80.9379 16.7174 80.9379 22.0692V32.8277H76.9102V13.6275H80.7177V15.8895H80.7724C81.6556 14.841 83.9176 12.5795 88.0001 12.5795C91.7523 12.5795 96.3865 13.7936 96.3865 19.421V32.8283ZM0 32.8283L15.8901 0H19.7518V32.8283H15.8901V8.49644L7.72458 26.3177L11.6416 23.0077H15.8348L4.74544 32.8283H0Z" fill="#4B4B4B"/>
<path fill-rule="evenodd" clip-rule="evenodd" d="M22.4009 5.62793V32.8282H26.3179V23.0076H28.7454L36.0831 32.8282H41.2696L32.5523 21.7383L42.649 13.6275H37.5727L26.3179 22.7869V5.62793H22.4009Z" fill="#4B4B4B"/>
</svg>
