<svg width="10" height="11" viewBox="0 0 10 11" fill="none" xmlns="http://www.w3.org/2000/svg">
<path d="M5.21706 10.0158C5.21705 10.0158 5.21703 10.0159 5.21702 10.0159C5.18789 10.043 5.1537 10.0641 5.11657 10.0784C5.07942 10.0927 5.03983 10.1 5 10.1C4.96017 10.1 4.92058 10.0927 4.88343 10.0784L5.21706 10.0158ZM5.21706 10.0158L9.00638 6.49419C9.06535 6.43939 9.1 6.36342 9.1 6.28252C9.1 6.20162 9.06535 6.12565 9.00638 6.07085C8.94766 6.01627 8.86948 5.98676 8.78936 5.98676C8.70924 5.98676 8.63107 6.01627 8.57234 6.07085L5.31052 9.10225V1.19565C5.31052 1.11478 5.27589 1.03884 5.21694 0.984054C5.15824 0.929499 5.08009 0.9 5 0.9C4.91991 0.9 4.84176 0.929499 4.78306 0.984054M5.21706 10.0158L4.78306 0.984054M4.78306 0.984054C4.72412 1.03884 4.68948 1.11478 4.68948 1.19565V9.10225L1.42766 6.07085C1.36893 6.01627 1.29076 5.98676 1.21064 5.98676C1.13052 5.98676 1.05234 6.01627 0.993618 6.07085C0.934648 6.12565 0.9 6.20162 0.9 6.28252C0.9 6.36342 0.934647 6.43939 0.993618 6.49419L4.78294 10.0158L4.78306 0.984054Z" fill="black" stroke="black" stroke-width="0.2"/>
</svg>
