<svg width="137" height="46" viewBox="0 0 137 46" fill="none" xmlns="http://www.w3.org/2000/svg">
<path fill-rule="evenodd" clip-rule="evenodd" d="M59.2965 14.3399H63.3193C66.206 14.3399 68.4218 15.085 69.9498 16.5565C71.4948 18.0467 72.2777 19.8714 72.2777 22.0687C72.2777 23.8942 71.719 25.4771 70.6191 26.7987C69.8934 27.6743 68.8129 28.3629 67.3978 28.8661C69.5386 29.4063 71.1215 30.3183 72.1471 31.6222C73.1518 32.9446 73.6558 34.583 73.6558 36.557C73.6558 38.1583 73.3018 39.6114 72.5753 40.8967C71.8488 42.182 70.8804 43.206 69.6144 43.9511C68.85 44.4163 67.6768 44.7518 66.1125 44.9566C64.0265 45.2356 62.6485 45.3847 61.9969 45.3847H59.2965V38.7171H60.0787C61.6615 38.7171 62.7791 38.4188 63.4121 37.8415C64.0829 37.2456 64.3998 36.4634 64.3998 35.4765C64.3998 34.5637 64.0829 33.8186 63.4314 33.2598C62.7791 32.7019 61.6808 32.4221 60.0601 32.4221H59.2965V26.5189H59.39C60.8237 26.5189 61.8292 26.2576 62.388 25.7359C62.9468 25.2142 63.2258 24.4699 63.2258 23.5015C63.2258 22.6081 62.9468 21.9001 62.388 21.397C61.8292 20.8761 60.8423 20.6148 59.4457 20.6148H59.2965V14.3399ZM46.0556 14.3399H59.2965V20.6148L55.3672 20.6156V26.5197L59.2965 26.5189V32.4221L55.3672 32.4229V38.7179L59.2965 38.7171V45.3847L46.0556 45.3856V14.3399ZM78.5535 14.3399H87.1765L98.4241 31.5109V14.3399H107.141V45.3856H98.4241L87.2313 28.3444V45.3856H78.5535V14.3399ZM113.267 14.3399H122.505V37.731H136.919V45.3856H113.267V14.3399ZM20.8205 10.8203V10.6154V10.7082C21.7518 7.39331 22.5896 3.74302 23.3161 0L17.9152 10.7082H19.1626C19.6835 10.7082 20.2068 10.7082 20.8205 10.8203ZM4.17119 37.7689L0 45.8879C2.60689 45.4783 5.00978 43.914 7.39332 41.5111C7.09875 41.328 6.85018 41.0798 6.6668 40.7854C5.62421 39.8549 4.8977 38.8115 4.17119 37.7689Z" fill="#4B4B4B"/>
<path fill-rule="evenodd" clip-rule="evenodd" d="M1.4707 28.4009C1.4707 31.8464 2.40202 35.0685 4.17113 37.769L17.9152 10.7083C13.5392 11.0251 9.79534 12.7015 6.66675 15.9228C3.12853 19.3498 1.4707 23.5218 1.4707 28.4009ZM22.7387 45.6461C26.0535 44.976 28.9959 43.3367 31.5479 40.7855C34.9749 37.3585 36.744 33.1865 36.744 28.4009C36.744 23.5218 34.9749 19.3498 31.5479 15.9236C28.9781 13.2789 26.0543 11.6775 22.7387 11.063V14.1174C25.3456 14.7504 27.5437 16.0914 29.5555 18.0096C32.3672 20.9149 33.8387 24.3418 33.8387 28.4017C33.8387 32.6665 32.2744 36.2055 29.0523 39.1293H22.7387V45.6461ZM22.7387 28.3267V14.6754C24.7134 19.6296 24.6949 24.1733 22.7387 28.3267ZM20.9325 10.8203H20.8204C20.5035 11.7517 20.2995 12.7942 19.9826 13.7256C19.7778 14.4706 19.573 15.1971 19.3682 15.9236C16.3509 26.3343 12.9054 34.1372 9.27445 39.1284C9.06964 39.4453 8.84547 39.6493 8.64147 39.967L7.82142 41.1024L7.91496 41.2144C7.71015 41.2144 7.59807 41.3072 7.50534 41.3072L7.39326 41.512C10.7267 44.4358 14.5818 46.0001 19.1634 46.0001C20.364 45.9978 21.5616 45.8795 22.7395 45.6469V39.1284H11.658C17.1701 35.9249 20.8583 32.3125 22.7387 28.3267V14.6754C22.6645 14.4706 22.571 14.2658 22.4782 14.0417C22.571 14.0602 22.6645 14.0787 22.7387 14.1158V11.0614C22.1409 10.9517 21.5381 10.8713 20.9325 10.8203Z" fill="#4B4B4B"/>
</svg>
