<svg width="22" height="22" viewBox="0 0 22 22" fill="none" xmlns="http://www.w3.org/2000/svg">
<path d="M11 0C8.82441 0 6.69767 0.645139 4.88873 1.85383C3.07979 3.06253 1.66989 4.78049 0.83733 6.79048C0.00476595 8.80047 -0.21307 11.0122 0.211367 13.146C0.635804 15.2798 1.68345 17.2398 3.22183 18.7782C4.76021 20.3165 6.72022 21.3642 8.85401 21.7886C10.9878 22.2131 13.1995 21.9952 15.2095 21.1627C17.2195 20.3301 18.9375 18.9202 20.1462 17.1113C21.3549 15.3023 22 13.1756 22 11C21.9968 8.0836 20.8368 5.28757 18.7746 3.22536C16.7124 1.16316 13.9164 0.00320276 11 0ZM21.12 11C21.1214 12.4732 20.7992 13.9287 20.1762 15.2636L14.828 11.9735C14.671 11.8772 14.4957 11.8147 14.3132 11.7898L11.803 11.4521C11.5204 11.414 11.2332 11.4685 10.9841 11.6073C10.7351 11.7461 10.5376 11.9618 10.4214 12.2221L10.3774 12.3189H9.1454C9.0627 12.3189 8.98169 12.2955 8.91165 12.2516C8.84161 12.2076 8.78538 12.1448 8.7494 12.0703L8.3314 11.2057C8.24439 11.0248 8.11703 10.8663 7.95913 10.7423C7.80123 10.6184 7.61699 10.5323 7.4206 10.4907L5.9477 10.175L7.1137 8.14C7.15238 8.07301 7.20802 8.01741 7.27504 7.97879C7.34205 7.94016 7.41806 7.91988 7.4954 7.92H9.3335C9.5567 7.91982 9.77621 7.86305 9.9715 7.755L11.3179 7.0114C11.407 6.96263 11.4901 6.90356 11.5654 6.8354L14.5255 4.158C14.747 3.95769 14.8941 3.68816 14.9427 3.39346C14.9912 3.09875 14.9384 2.79629 14.7928 2.5355L14.1482 1.3816C16.1743 2.04779 17.9386 3.33593 19.1903 5.06278C20.442 6.78963 21.1173 8.86722 21.12 11ZM12.9679 1.0725L14.0239 2.9645C14.0725 3.05147 14.0902 3.15237 14.074 3.25068C14.0578 3.349 14.0087 3.43891 13.9348 3.5057L10.9747 6.1831C10.9493 6.20535 10.9217 6.22489 10.8922 6.2414L9.5458 6.985C9.48081 7.02096 9.40778 7.03988 9.3335 7.04H7.4954C7.26337 7.03966 7.03534 7.10049 6.8343 7.21636C6.63326 7.33223 6.46632 7.49905 6.3503 7.7L5.0457 9.977C4.97715 9.95938 4.91385 9.92549 4.86119 9.87819C4.80853 9.83089 4.76805 9.77158 4.7432 9.7053L3.4793 6.336C3.4386 6.22931 3.44097 6.11097 3.4859 6.006L4.73 3.0591C6.5135 1.6447 8.72374 0.876549 11 0.88C11.6607 0.880148 12.3197 0.944618 12.9679 1.0725ZM0.880005 11C0.876844 8.71257 1.65277 6.49225 3.08 4.7047L2.6719 5.6672C2.54062 5.97828 2.53353 6.32785 2.6521 6.644L3.916 10.0177C3.9931 10.2253 4.12148 10.41 4.2892 10.5547C4.45691 10.6993 4.65851 10.7992 4.8752 10.8449L7.2325 11.352C7.29793 11.3661 7.35928 11.3949 7.41189 11.4363C7.4645 11.4776 7.50698 11.5304 7.5361 11.5907L7.9541 12.4553C8.06291 12.6779 8.23184 12.8657 8.44178 12.9973C8.65173 13.1289 8.89432 13.1991 9.1421 13.2H9.9825L8.91 15.6035C8.80363 15.8421 8.77047 16.107 8.81473 16.3645C8.85898 16.622 8.97866 16.8606 9.1586 17.05L11.3234 19.2786C11.3704 19.3291 11.4048 19.39 11.4239 19.4563C11.443 19.5226 11.4463 19.5925 11.4334 19.6603L11.1496 21.12H11C8.31691 21.1171 5.74454 20.0499 3.8473 18.1527C1.95006 16.2555 0.882916 13.6831 0.880005 11ZM12.056 21.065L12.2958 19.8231C12.3352 19.6184 12.3258 19.4072 12.2685 19.2068C12.2112 19.0063 12.1075 18.8222 11.9658 18.6692L9.801 16.4406C9.74255 16.3773 9.70399 16.2981 9.6901 16.2131C9.67622 16.128 9.68762 16.0407 9.7229 15.9621L11.2299 12.5807C11.2687 12.4941 11.3344 12.4224 11.4172 12.3762C11.5001 12.33 11.5957 12.3118 11.6897 12.3244L14.1999 12.6621C14.2607 12.6708 14.3191 12.6918 14.3715 12.7237L19.7736 16.0457C18.9749 17.4323 17.8591 18.61 16.5177 19.4824C15.1763 20.3548 13.6473 20.8971 12.056 21.065Z" fill="#141414"/>
</svg>
