<svg width="17" height="20" viewBox="0 0 17 20" fill="none" xmlns="http://www.w3.org/2000/svg">
<path d="M16.7997 9.20017V18.8C16.7997 19.1183 16.6733 19.4235 16.4483 19.6485C16.2232 19.8736 15.918 20 15.5998 20H1.19998C0.881726 20 0.576506 19.8736 0.351466 19.6485C0.126426 19.4235 0 19.1183 0 18.8V9.20017C0 8.88192 0.126426 8.5767 0.351466 8.35166C0.576506 8.12662 0.881726 8.00019 1.19998 8.00019H3.59994C3.70603 8.00019 3.80777 8.04233 3.88278 8.11734C3.9578 8.19236 3.99994 8.2941 3.99994 8.40018C3.99994 8.50627 3.9578 8.60801 3.88278 8.68302C3.80777 8.75803 3.70603 8.80018 3.59994 8.80018H1.19998C1.0939 8.80018 0.992156 8.84232 0.917143 8.91733C0.84213 8.99234 0.799987 9.09408 0.799987 9.20017V18.8C0.799987 18.9061 0.84213 19.0078 0.917143 19.0829C0.992156 19.1579 1.0939 19.2 1.19998 19.2H15.5998C15.7058 19.2 15.8076 19.1579 15.8826 19.0829C15.9576 19.0078 15.9997 18.9061 15.9997 18.8V9.20017C15.9997 9.09408 15.9576 8.99234 15.8826 8.91733C15.8076 8.84232 15.7058 8.80018 15.5998 8.80018H13.1998C13.0937 8.80018 12.992 8.75803 12.917 8.68302C12.8419 8.60801 12.7998 8.50627 12.7998 8.40018C12.7998 8.2941 12.8419 8.19236 12.917 8.11734C12.992 8.04233 13.0937 8.00019 13.1998 8.00019H15.5998C15.918 8.00019 16.2232 8.12662 16.4483 8.35166C16.6733 8.5767 16.7997 8.88192 16.7997 9.20017ZM4.68293 4.68324L7.99987 1.36629V11.6001C7.99987 11.7062 8.04202 11.808 8.11703 11.883C8.19204 11.958 8.29378 12.0001 8.39987 12.0001C8.50595 12.0001 8.60769 11.958 8.68271 11.883C8.75772 11.808 8.79986 11.7062 8.79986 11.6001V1.36629L12.1168 4.68324C12.154 4.7204 12.1981 4.74988 12.2466 4.77C12.2952 4.79011 12.3472 4.80046 12.3998 4.80046C12.4524 4.80046 12.5044 4.79011 12.553 4.77C12.6015 4.74988 12.6456 4.7204 12.6828 4.68324C12.72 4.64608 12.7494 4.60196 12.7696 4.5534C12.7897 4.50485 12.8 4.4528 12.8 4.40025C12.8 4.34769 12.7897 4.29565 12.7696 4.24709C12.7494 4.19853 12.72 4.15441 12.6828 4.11725L8.68286 0.117313C8.64571 0.0801229 8.6016 0.0506198 8.55304 0.0304904C8.50448 0.010361 8.45243 0 8.39987 0C8.3473 0 8.29525 0.010361 8.24669 0.0304904C8.19814 0.0506198 8.15402 0.0801229 8.11687 0.117313L4.11694 4.11725C4.07977 4.15441 4.05029 4.19853 4.03018 4.24709C4.01007 4.29565 3.99971 4.34769 3.99971 4.40025C3.99971 4.4528 4.01007 4.50485 4.03018 4.5534C4.05029 4.60196 4.07977 4.64608 4.11694 4.68324C4.19199 4.7583 4.29379 4.80046 4.39993 4.80046C4.45249 4.80046 4.50453 4.79011 4.55309 4.77C4.60164 4.74988 4.64576 4.7204 4.68293 4.68324Z" fill="#2E2E2E"/>
</svg>
