<svg width="11" height="11" viewBox="0 0 11 11" fill="none" xmlns="http://www.w3.org/2000/svg">
<path d="M10.7984 2.76229L8.23814 0.202188C8.17427 0.138102 8.09838 0.0872522 8.01481 0.0525561C7.93125 0.0178601 7.84166 0 7.75118 0C7.6607 0 7.57111 0.0178601 7.48755 0.0525561C7.40399 0.0872522 7.32809 0.138102 7.26423 0.202188L5.56676 1.90129L0.201659 7.26668C0.137548 7.33026 0.086708 7.40595 0.0520903 7.48934C0.0174727 7.57273 -0.000232616 7.66217 2.30749e-06 7.75246V10.3126C2.30749e-06 10.4949 0.0724315 10.6697 0.201356 10.7987C0.330281 10.9276 0.505141 11 0.687468 11H3.24771C3.42989 11 3.60462 10.9277 3.73352 10.7989L10.7978 3.73443C10.8619 3.67057 10.9127 3.59468 10.9474 3.51112C10.9821 3.42757 11 3.33798 11 3.2475C11 3.15703 10.9821 3.06744 10.9474 2.98389C10.9127 2.90033 10.8619 2.82444 10.7978 2.76057L10.7984 2.76229ZM3.40811 10.4747C3.36553 10.5172 3.3079 10.5413 3.24771 10.5417H0.687468C0.626693 10.5417 0.568406 10.5176 0.525431 10.4746C0.482456 10.4316 0.458313 10.3733 0.458313 10.3126V7.75246C0.458289 7.72236 0.464197 7.69255 0.475698 7.66474C0.487198 7.63692 0.504067 7.61164 0.525341 7.59034L5.72889 2.38707L8.61281 5.27141L3.40811 10.4747ZM10.4741 3.4102L8.93706 4.94718L6.05314 2.06341L7.58963 0.526426C7.61091 0.505121 7.63618 0.48822 7.664 0.476688C7.69182 0.465157 7.72164 0.459222 7.75175 0.459222C7.78187 0.459222 7.81169 0.465157 7.83951 0.476688C7.86733 0.48822 7.8926 0.505121 7.91388 0.526426L10.4741 3.08596C10.4954 3.10724 10.5123 3.13251 10.5239 3.16033C10.5354 3.18815 10.5413 3.21796 10.5413 3.24808C10.5413 3.27819 10.5354 3.30801 10.5239 3.33583C10.5123 3.36364 10.4954 3.38892 10.4741 3.4102Z" fill="#141414"/>
</svg>
