<svg width="20" height="20" viewBox="0 0 20 20" fill="none" xmlns="http://www.w3.org/2000/svg">
<path d="M10.8 15.2C10.8 15.3582 10.7531 15.5129 10.6652 15.6445C10.5773 15.776 10.4523 15.8786 10.3061 15.9391C10.16 15.9997 9.99911 16.0155 9.84393 15.9846C9.68875 15.9538 9.5462 15.8776 9.43432 15.7657C9.32244 15.6538 9.24624 15.5113 9.21537 15.3561C9.18451 15.2009 9.20035 15.04 9.2609 14.8939C9.32145 14.7477 9.42399 14.6227 9.55555 14.5348C9.68711 14.4469 9.84178 14.4 10 14.4C10.2122 14.4 10.4157 14.4843 10.5657 14.6343C10.7157 14.7843 10.8 14.9878 10.8 15.2ZM10 4.8C8.015 4.8 6.4 6.236 6.4 8V8.4C6.4 8.50608 6.44215 8.60783 6.51716 8.68284C6.59217 8.75786 6.69392 8.8 6.8 8.8C6.90609 8.8 7.00783 8.75786 7.08285 8.68284C7.15786 8.60783 7.2 8.50608 7.2 8.4V8C7.2 6.677 8.456 5.6 10 5.6C11.544 5.6 12.8 6.677 12.8 8C12.8 9.323 11.544 10.4 10 10.4C9.89392 10.4 9.79217 10.4421 9.71716 10.5172C9.64215 10.5922 9.6 10.6939 9.6 10.8V11.6C9.6 11.7061 9.64215 11.8078 9.71716 11.8828C9.79217 11.9579 9.89392 12 10 12C10.1061 12 10.2078 11.9579 10.2828 11.8828C10.3579 11.8078 10.4 11.7061 10.4 11.6V11.18C12.2 11.003 13.6 9.644 13.6 8C13.6 6.236 11.985 4.8 10 4.8ZM20 10C20 11.9778 19.4135 13.9112 18.3147 15.5557C17.2159 17.2002 15.6541 18.4819 13.8268 19.2388C11.9996 19.9957 9.98891 20.1937 8.0491 19.8078C6.10929 19.422 4.32746 18.4696 2.92894 17.0711C1.53041 15.6725 0.578004 13.8907 0.192152 11.9509C-0.1937 10.0111 0.00433268 8.00043 0.761209 6.17316C1.51809 4.3459 2.79981 2.78412 4.4443 1.6853C6.08879 0.58649 8.02219 0 10 0C12.6513 0.0029116 15.1931 1.05741 17.0679 2.93215C18.9426 4.80688 19.9971 7.34873 20 10ZM19.2 10C19.2 8.18041 18.6604 6.40168 17.6495 4.88875C16.6386 3.37582 15.2018 2.19663 13.5207 1.50031C11.8396 0.803982 9.9898 0.621791 8.20517 0.976775C6.42055 1.33176 4.78126 2.20797 3.49462 3.49462C2.20798 4.78126 1.33176 6.42054 0.97678 8.20517C0.621796 9.98979 0.803986 11.8396 1.50031 13.5207C2.19664 15.2018 3.37583 16.6386 4.88876 17.6495C6.40169 18.6604 8.18042 19.2 10 19.2C12.4392 19.1973 14.7777 18.2272 16.5025 16.5025C18.2272 14.7777 19.1974 12.4392 19.2 10Z" fill="#2E2E2E"/>
</svg>
