<svg width="235" height="36" viewBox="0 0 235 36" fill="none" xmlns="http://www.w3.org/2000/svg">
<path fill-rule="evenodd" clip-rule="evenodd" d="M146 27.0365V20.6434C146 19.451 146.306 19.0302 147.453 18.7716V18H137.832V18.9148C138.814 19.3341 139.236 20.2474 139.236 20.9036V27.0365C137.527 28.4145 134.274 29.1656 131.394 29.1656C124.045 29.1656 121.093 22.7272 121.093 17.9985C121.093 11.3278 125.399 6.80955 130.528 6.43546C135.934 6.03799 140.969 9.12714 140.969 10.7652C140.969 10.8821 140.969 10.9523 140.921 11.0692L141.555 11.5134L145.322 3.69411L144.666 3.24842C144.035 3.36678 143.522 3.50706 143.122 3.50706C141.555 3.50706 137.855 0.509988 130.998 0.60497C122.078 0.721873 114.329 8.84511 114.329 18.0672C114.329 27.0351 119.946 34.9464 130.295 34.9464C135.326 34.9464 141.671 33.3083 147.453 29.6785V28.8587C146.306 28.6045 146 28.2304 146 27.0365ZM0 31.8573L0.913298 32.1861C1.10034 31.6717 1.28738 31.4847 1.68631 31.4847C2.66829 31.4847 6.64881 34.9946 15.1461 34.9946C24.3697 34.9946 30.2689 30.1023 30.2689 24.0862C30.2689 18.8198 26.4067 15.3317 19.0083 14.3483C11.6113 13.3415 7.11642 14.395 7.11642 10.7667C7.11642 8.51924 9.76279 6.69265 14.49 6.69265C20.1072 6.69265 25.1866 9.75986 25.1866 11.4447C25.1866 11.585 25.1866 11.6318 25.1398 11.7735L26.0999 12.3346L29.8217 4.56357L29.1203 4.18949C28.6512 4.56357 28.3005 4.82076 28.02 4.82076C26.8729 4.82076 21.9571 1.12227 14.6771 1.12227C6.01608 1.12227 0.58451 5.61715 0.58451 11.9606C0.58451 17.414 4.1661 20.341 11.376 21.0205C18.3054 21.7219 23.4082 20.7633 23.4082 24.7876C23.4082 27.2221 20.2723 29.2372 15.3785 29.2372C9.52606 29.2372 4.0492 26.4739 4.0492 25.093C4.0492 24.9045 4.09596 24.7189 4.1661 24.4588L3.22942 24.0395L0 31.8573ZM51.2192 31.812V4.18949C51.2192 2.99562 51.453 2.62007 52.6001 2.36289V1.56796H43.1427V2.36289C44.2898 2.62007 44.5236 2.99562 44.5236 4.18949V31.812C44.5236 33.0044 44.2898 33.3098 43.1427 33.6123V34.4335H52.6001V33.6123C51.4062 33.3098 51.2192 33.0044 51.2192 31.812ZM76.7579 12.1491L94.0112 31.1793C94.549 31.7418 94.831 32.1861 94.831 32.6771C94.831 33.1227 94.4803 33.4968 93.8475 33.6137V34.435H103.843V33.6137C102.696 33.3799 102.462 33.0058 102.462 31.8134V4.18949C102.462 2.99562 102.742 2.69168 103.889 2.36289V1.56796H95.1817V2.36289C96.4457 2.69168 96.6327 2.99562 96.6327 4.18949V22.961L80.1525 4.82076C79.6366 4.25963 79.3561 3.81393 79.3561 3.32294C79.3561 2.87872 79.6848 2.50317 80.3395 2.36289V1.56796H69.4778V2.36289C70.6249 2.62007 70.9055 2.99562 70.9055 4.18949V31.812C70.9055 33.0044 70.6249 33.3098 69.4778 33.6123V34.4335H78.1388V33.6123C76.9216 33.3098 76.7579 33.0044 76.7579 31.812V12.1491ZM185.258 28.5358H167.537V19.9683H180.925C182.027 19.9683 182.377 20.2021 182.611 21.4661H183.359V13.1544H182.611C182.306 14.5353 182.027 14.6522 180.925 14.6522H167.537V7.39552H184.907C186.006 7.39552 186.357 7.69947 186.59 8.94009H187.339V0H186.59C186.285 1.38091 186.006 1.56796 184.907 1.56796H159.437V2.36289C160.584 2.62007 160.865 2.99562 160.865 4.18949V31.812C160.865 33.0044 160.585 33.3098 159.437 33.6123V34.4335H185.258C186.357 34.4335 186.707 34.7594 186.941 36H187.692V27.0351H186.941C186.637 28.416 186.357 28.5358 185.258 28.5358ZM200.87 34.435H210.397V33.6137C209.182 33.3113 208.97 33.0058 208.97 31.8134V20.9503H217.163L223.577 31.039C223.973 31.6732 224.278 32.4915 224.278 32.5602C224.278 33.1228 223.811 33.4968 222.991 33.6137V34.435H234.156V33.6137C232.635 32.7487 231.56 32.0692 230.575 30.4778L224.278 20.7662C229.755 19.1515 232.423 16.036 232.423 11.0736C232.423 5.24452 228.07 1.56942 219.948 1.56942H200.868V2.36435C202.039 2.69314 202.321 2.99708 202.321 4.19095V31.8134C202.321 33.0058 202.039 33.3799 200.868 33.6137L200.87 34.435Z" fill="#4B4B4B"/>
</svg>
