<svg width="24" height="24" viewBox="0 0 24 24" fill="none" xmlns="http://www.w3.org/2000/svg">
<path d="M16.7964 7.20358C16.5666 5.65636 15.9116 4.20338 14.9044 3.00665C13.8972 1.80992 12.5773 0.916483 11.0921 0.425956C9.60678 -0.0645705 8.01444 -0.132902 6.4926 0.228581C4.97076 0.590063 3.57924 1.36715 2.4732 2.4732C1.36715 3.57924 0.590063 4.97076 0.228581 6.4926C-0.132902 8.01444 -0.0645705 9.60678 0.425956 11.0921C0.916483 12.5773 1.80992 13.8972 3.00665 14.9044C4.20338 15.9116 5.65636 16.5666 7.20358 16.7964C7.43336 18.3436 8.08838 19.7966 9.0956 20.9933C10.1028 22.1901 11.4227 23.0835 12.9079 23.574C14.3932 24.0646 15.9856 24.1329 17.5074 23.7714C19.0292 23.4099 20.4208 22.6328 21.5268 21.5268C22.6328 20.4208 23.4099 19.0292 23.7714 17.5074C24.1329 15.9856 24.0646 14.3932 23.574 12.9079C23.0835 11.4227 22.1901 10.1028 20.9933 9.0956C19.7966 8.08838 18.3436 7.43336 16.7964 7.20358ZM0.889454 8.44462C0.891821 6.5577 1.60019 4.73995 2.87522 3.34897C4.15024 1.958 5.89962 1.09448 7.77922 0.928292C9.65881 0.762105 11.5326 1.30528 13.0319 2.45096C14.5312 3.59664 15.5475 5.2619 15.8809 7.11914C15.7698 7.11914 15.6587 7.11136 15.5554 7.11136C13.3166 7.11371 11.1702 8.0041 9.58715 9.58715C8.0041 11.1702 7.11371 13.3166 7.11136 15.5554C7.11136 15.6665 7.11136 15.7776 7.11914 15.8809C5.37402 15.5677 3.79432 14.6516 2.65574 13.2925C1.51716 11.9334 0.892032 10.2176 0.889454 8.44462ZM15.9998 8.44462C16.0005 9.63816 15.7168 10.8147 15.1721 11.8767L12.1233 8.82794C13.1853 8.28321 14.3618 7.99946 15.5554 8.0002C15.6998 8.0002 15.8442 8.0002 15.9865 8.01354C15.9998 8.15575 15.9998 8.30019 15.9998 8.44462ZM8.0002 15.5554C7.99946 14.3618 8.28321 13.1853 8.82794 12.1233L11.8767 15.1721C10.8147 15.7168 9.63816 16.0005 8.44462 15.9998C8.30019 15.9998 8.15575 15.9942 8.01354 15.9865C8.00576 15.8442 8.0002 15.6998 8.0002 15.5554ZM12.6666 14.7065L9.29347 11.3334C9.83768 10.53 10.53 9.83768 11.3334 9.29347L14.7065 12.6666C14.1623 13.47 13.47 14.1623 12.6666 14.7065ZM15.5554 23.1105C13.7824 23.108 12.0666 22.4828 10.7075 21.3443C9.34839 20.2057 8.43229 18.626 8.11909 16.8809C8.23019 16.8809 8.3413 16.8886 8.44462 16.8886C10.6834 16.8863 12.8298 15.9959 14.4128 14.4128C15.9959 12.8298 16.8863 10.6834 16.8886 8.44462C16.8886 8.33352 16.8886 8.22241 16.8809 8.11909C18.7381 8.4525 20.4034 9.46882 21.549 10.9681C22.6947 12.4674 23.2379 14.3412 23.0717 16.2208C22.9055 18.1004 22.042 19.8498 20.651 21.1248C19.26 22.3998 17.4423 23.1082 15.5554 23.1105Z" fill="#141414"/>
</svg>
