<svg width="123" height="41" viewBox="0 0 123 41" fill="none" xmlns="http://www.w3.org/2000/svg">
<path fill-rule="evenodd" clip-rule="evenodd" d="M3.71242 19.3771C3.71242 25.5697 5.33845 28.5415 7.38931 30.5586C10.4297 33.3897 14.7083 33.5667 16.1574 33.5667C18.6679 33.5667 21.8497 33.143 24.9256 30.4186C28.3198 27.4104 28.8149 22.3156 28.8149 17.7149V13.1497C28.8149 6.53266 28.8149 5.32895 28.9207 3.94969C28.991 2.46377 29.3448 1.75562 30.4765 1.54303C31.0064 1.40154 31.2543 1.40155 31.537 1.40155C31.7139 1.40155 31.8908 1.33118 31.8908 1.15414C31.8908 0.906735 31.6784 0.800065 31.2188 0.800065C29.9458 0.800065 27.9312 0.941548 27.6477 0.941548C27.4005 0.941548 25.0314 0.800065 23.1219 0.800065C22.6623 0.800065 22.4499 0.906735 22.4499 1.15414C22.4499 1.33118 22.6268 1.40155 22.8037 1.40155C23.1575 1.40155 23.899 1.47266 24.2528 1.54303C25.6317 1.82599 25.9854 2.53414 26.0557 3.94969C26.1623 5.32969 26.1623 6.53266 26.1623 13.1497V18.4578C26.1623 22.8445 25.6317 26.4541 23.6874 28.8964C22.1664 30.7364 19.5857 31.9749 17.0049 31.9749C14.6002 31.9749 12.6915 31.586 10.6058 29.6038C8.7674 27.8704 7.38857 25.2519 7.38857 19.0941V13.1497C7.38857 6.53266 7.38857 5.32895 7.49514 3.94969C7.56545 2.46377 7.91923 1.7208 9.05086 1.54303C9.58153 1.4371 9.82873 1.40155 10.1114 1.40155C10.2883 1.40155 10.4652 1.33118 10.4652 1.15414C10.4652 0.906735 10.2528 0.800065 9.7932 0.800065C8.5202 0.800065 5.97421 0.941548 5.58565 0.941548C5.19709 0.941548 2.61557 0.800065 0.671284 0.800065C0.211673 0.800065 0 0.906735 0 1.15414C0 1.33118 0.176887 1.40155 0.353775 1.40155C0.743075 1.40155 1.44988 1.47266 1.80292 1.54303C3.18175 1.82599 3.53553 2.53414 3.60658 3.94969C3.71316 5.32969 3.71316 6.53266 3.71316 13.1497V19.3771H3.71242ZM64.276 1.36599C64.205 0.551916 64.0636 0.233398 63.7816 0.233398C63.4619 0.233398 63.322 0.516359 63.1444 0.905989L50.6283 27.6215L37.6171 0.870436C37.4047 0.37488 37.2633 0.233398 36.9806 0.233398C36.7334 0.233398 36.6268 0.51636 36.521 0.97636L33.4813 28.7178C33.3044 30.3467 33.1631 32.009 31.7487 32.2564C31.1122 32.3978 30.8295 32.3978 30.4757 32.3978C30.2633 32.3978 30.0516 32.469 30.0516 32.6104C30.0516 32.8941 30.3699 32.9653 30.794 32.9653C31.9256 32.9653 33.9757 32.8578 34.365 32.8578C34.6833 32.8578 36.7334 32.9653 38.3246 32.9653C38.819 32.9653 39.067 32.8941 39.067 32.6104C39.067 32.469 38.8901 32.3978 38.7487 32.3978C38.466 32.3978 37.8295 32.3267 37.1219 32.1867C36.4854 32.0453 36.0266 31.4778 36.0266 30.8415C36.0266 30.1341 36.0266 29.3556 36.0621 28.683L37.7584 8.93784H37.9353C38.3949 10.1052 43.1679 20.2964 43.5565 21.0741C43.7689 21.4993 47.4103 28.8593 48.5064 30.9467C49.3198 32.469 49.5315 32.8941 49.8149 32.8941C50.2035 32.8941 50.3448 32.5052 51.2293 30.6282L61.659 8.51266H61.7655L63.8164 30.4882C63.8875 31.2304 63.8527 31.9741 63.6403 32.009C63.4278 32.0453 63.3568 32.1164 63.3568 32.2927C63.3568 32.5052 63.5692 32.646 64.5232 32.7164C66.1145 32.8578 70.7113 32.9653 71.6298 32.9653C72.1605 32.9653 72.549 32.8578 72.549 32.6104C72.549 32.4341 72.4091 32.3978 72.196 32.3978C71.7712 32.3978 70.6751 32.3978 69.4376 32.009C67.5991 31.4075 67.3157 29.0371 67.1395 27.4793L64.276 1.36599Z" fill="#4B4B4B"/>
<path fill-rule="evenodd" clip-rule="evenodd" d="M74.8052 20.6044C74.8052 24.6647 74.8052 28.0177 74.5927 29.8195C74.4166 31.0552 74.2042 31.9731 73.3553 32.149C72.9667 32.2199 72.4709 32.3249 72.0816 32.3249C71.8344 32.3249 71.7286 32.4321 71.7286 32.5717C71.7286 32.8201 71.9395 32.891 72.3991 32.891C73.7076 32.891 76.3601 32.7838 76.5725 32.7838C76.9255 32.7838 81.2736 33.0307 82.2291 33.0307C89.5116 33.0307 93.0833 28.3348 93.0833 23.7808C93.0833 18.8033 88.8752 15.8028 85.7283 14.814C87.7088 12.7314 89.7233 10.648 89.7233 7.18854C89.7233 5.07044 88.2024 0.798766 81.2033 0.798766C79.2576 0.798766 77.5968 0.939925 76.5718 0.939925C76.3594 0.939925 73.7068 0.798766 71.7626 0.798766C71.303 0.798766 71.0906 0.905192 71.0906 1.15203C71.0906 1.32866 71.2682 1.39887 71.4451 1.39887C71.8337 1.39887 72.5405 1.46982 72.895 1.54003C74.2738 1.82234 74.6268 2.52887 74.6978 3.94118C74.8052 5.31802 74.8052 6.51823 74.8052 13.1201V20.6044ZM78.1992 2.66928C78.1992 2.42244 78.3406 2.31603 78.6936 2.21034C79.4004 2.03371 80.2848 1.99824 80.7444 1.99824C84.9164 1.99824 86.4713 5.77549 86.4713 9.30664C86.4713 11.0367 85.8356 12.5895 84.9504 13.5783C84.0675 14.6019 83.4658 14.7083 81.0967 14.7083C79.507 14.7083 78.7639 14.5672 78.4805 14.5317C78.2696 14.4253 78.1985 14.355 78.1985 14.0727L78.1992 2.66928ZM78.1992 16.1561C78.1992 15.9093 78.2703 15.8383 78.4464 15.8383C79.0822 15.8383 81.2048 15.8383 81.7695 15.9447C82.7945 16.0504 83.8551 16.1916 85.3049 17.1457C88.5577 19.4049 89.4058 23.1127 89.4058 25.6543C89.4058 30.4551 85.7283 31.6908 83.4303 31.6908C82.6524 31.6908 80.8503 31.5851 79.6839 31.056C78.3754 30.4211 78.3754 29.8203 78.234 27.7376C78.1992 27.1013 78.1992 21.8408 78.1992 18.558V16.1561ZM113.059 33.4896C115.781 33.4896 118.999 33.208 120.696 32.537C121.473 32.183 121.544 32.1143 121.826 31.3013C122.251 29.8535 122.745 26.1465 122.745 25.8642C122.745 25.5116 122.675 25.2293 122.463 25.2293C122.216 25.2293 122.108 25.4052 122.038 25.8642C121.897 26.6062 121.331 28.4767 120.448 29.4308C118.751 31.1602 116.24 31.5482 113.059 31.5482C103.973 31.5482 97.7156 24.1348 97.7156 16.0142C97.7156 11.6716 98.4224 7.89432 101.533 4.92854C103.019 3.48149 105.67 1.8216 111.326 1.8216C115.074 1.8216 118.327 2.98707 119.811 4.25749C120.908 5.17538 121.616 6.94022 121.616 8.56464C121.616 9.16474 121.65 9.48253 121.934 9.48253C122.217 9.48253 122.287 9.23569 122.322 8.56464C122.357 7.92906 122.357 5.59886 122.464 4.22276C122.535 2.66929 122.676 2.17487 122.676 1.8216C122.676 1.57476 122.569 1.39813 122.109 1.36266C120.767 1.29171 119.387 1.00939 117.761 0.727079C115.71 0.339081 113.306 0.233398 111.609 0.233398C105.068 0.233398 101.215 2.21034 98.6348 4.75265C94.8522 8.5299 93.8967 13.5081 93.8967 16.3675C93.8967 20.3916 94.9232 25.2286 99.0241 28.9009C102.381 31.9369 106.694 33.4896 113.059 33.4896ZM5.08498 39.6695L5.22634 40.1994H5.89761L5.15529 37.9387H4.27162L3.5293 40.1994H4.20057L4.34192 39.6695H5.08498ZM4.97841 39.2446H4.4485L4.58986 38.7856C4.62464 38.6097 4.66017 38.4678 4.69569 38.2919H4.73122C4.76674 38.4678 4.80227 38.6097 4.83705 38.7856L4.97841 39.2446ZM9.25691 39.5276C9.15034 39.2446 8.93867 38.7147 8.5849 37.9387H7.73675V40.1994H8.30293C8.30293 39.4212 8.30293 38.8913 8.2674 38.6105H8.30293C8.37324 38.892 8.62117 39.3872 8.9742 40.1994H9.82235V37.9387H9.25691V39.5276ZM16.7519 37.9387H16.1154V38.8218H15.2665V37.9387H14.6308V40.1987H15.2665V39.2446H16.1154V40.1987H16.7519V37.9387ZM18.6258 39.0687C18.6258 39.8454 19.0499 40.2334 19.7574 40.2334C20.4287 40.2334 20.8528 39.8454 20.8528 39.0687C20.8528 38.2919 20.4287 37.9039 19.7574 37.9039C19.0499 37.9039 18.6258 38.2919 18.6258 39.0687ZM19.7574 38.3267C20.0046 38.3267 20.217 38.504 20.217 39.0687C20.217 39.6333 20.0046 39.8092 19.7574 39.8092C19.5102 39.8092 19.2623 39.6333 19.2623 39.0687C19.2623 38.504 19.5095 38.3267 19.7574 38.3267ZM24.2824 39.5276C24.2121 39.2446 23.9641 38.7147 23.6111 37.9387H22.763V40.1994H23.3284V38.6105C23.435 38.892 23.6466 39.3872 24.0004 40.1994H24.8486V37.9387H24.2824C24.2824 38.7154 24.2824 39.2453 24.3179 39.5276H24.2824ZM26.7573 39.0687C26.7573 39.8454 27.1821 40.2334 27.8533 40.2334C28.5601 40.2334 28.9842 39.8454 28.9842 39.0687C28.9842 38.2919 28.5601 37.9039 27.8533 37.9039C27.1821 37.9039 26.7573 38.2919 26.7573 39.0687ZM27.8533 38.3267C28.1005 38.3267 28.3477 38.504 28.3477 39.0687C28.3477 39.6333 28.1005 39.8092 27.8533 39.8092C27.6062 39.8092 27.3938 39.6333 27.3938 39.0687C27.3938 38.504 27.6062 38.3267 27.8533 38.3267ZM32.379 39.3155C32.7328 39.2446 32.98 39.0687 32.98 38.6807C32.98 38.0458 32.3435 37.9387 31.8839 37.9387H30.9292V40.1994H31.5302V39.3865H31.7773L32.308 40.1994H33.1214L32.379 39.3155ZM31.5302 38.9977V38.3629H31.8839C32.2022 38.3629 32.3435 38.4686 32.3435 38.6807C32.3435 38.8913 32.2022 38.9985 31.9194 38.9985L31.5302 38.9977ZM36.8337 38.4686C36.7626 38.1508 36.4451 37.9039 35.9145 37.9039C35.5963 37.9039 35.3491 37.9749 35.1722 38.0798C35.1038 38.1349 35.0491 38.2049 35.0123 38.2845C34.9754 38.3641 34.9575 38.4511 34.9598 38.5388C34.9598 38.7856 35.1011 38.9268 35.2425 38.9977C35.3491 39.1034 35.5252 39.1736 35.7369 39.2446C35.9493 39.3155 36.0551 39.3502 36.1254 39.3857C36.232 39.4567 36.2668 39.4914 36.2668 39.5978C36.2577 39.6509 36.233 39.7001 36.1957 39.739C36.0964 39.7863 35.9875 39.8101 35.8775 39.8084C35.7006 39.8084 35.5593 39.739 35.5237 39.5978L34.8872 39.6326C34.9576 39.9503 35.2758 40.2327 35.8768 40.2327C36.2653 40.2327 36.5132 40.127 36.6546 39.9858C36.7316 39.9282 36.794 39.8535 36.837 39.7675C36.8799 39.6815 36.9021 39.5867 36.9018 39.4907C36.9018 39.3148 36.796 39.1381 36.6894 39.0317C36.5304 38.9481 36.3648 38.8776 36.1943 38.8211C35.9826 38.7501 35.876 38.7139 35.7702 38.6799C35.6643 38.6437 35.5933 38.5728 35.5933 38.4678C35.5933 38.4331 35.6288 38.3969 35.6643 38.3621C35.7391 38.3174 35.8243 38.2929 35.9115 38.2912C36.0884 38.2912 36.1587 38.3969 36.2298 38.5033L36.8337 38.4686ZM43.7632 37.9387H43.1623V39.3502C43.1623 39.6695 43.0557 39.8092 42.7382 39.8092C42.3844 39.8092 42.3141 39.6695 42.3141 39.3502V37.9387H41.6776V39.3155C41.6776 39.9866 41.9959 40.2334 42.7389 40.2334C43.4813 40.2334 43.764 39.9866 43.764 39.3155L43.7632 37.9387ZM47.2632 39.5276C47.1928 39.2446 46.9449 38.7147 46.5919 37.9387H45.7437V40.1994H46.3092C46.3092 39.4212 46.3092 38.8913 46.2744 38.6105H46.3092C46.4157 38.892 46.6274 39.3872 46.9812 40.1994H47.8293V37.9387H47.2632V39.5276ZM50.5514 40.1987V37.9387H49.9149V40.1987H50.5514ZM53.662 39.7744C53.5917 39.5276 53.5562 39.3502 53.4852 39.1743L53.1669 37.9387H52.4949L53.2728 40.1994H54.0861L54.864 37.9387H54.192L53.8737 39.1396C53.7982 39.3463 53.739 39.5585 53.6968 39.7744H53.662ZM57.3396 38.8218V38.3629H58.4357V37.9387H56.7031V40.1987H58.4705V39.7744H57.3396V39.2446H58.1174V38.8218H57.3396ZM61.9001 39.3155C62.2538 39.2446 62.501 39.0687 62.501 38.6807C62.501 38.0458 61.8645 37.9387 61.4049 37.9387H60.4502V40.1994H61.0512V39.3865H61.2984L61.829 40.1994H62.6424L61.9001 39.3155ZM61.0519 38.9977V38.3629H61.4057C61.7239 38.3629 61.8653 38.4686 61.8653 38.6807C61.8653 38.8913 61.6884 38.9985 61.4057 38.9985L61.0519 38.9977ZM66.3547 38.4686C66.2837 38.1508 65.9662 37.9039 65.4355 37.9039C65.1173 37.9039 64.8701 37.9749 64.6939 38.0798C64.6256 38.1349 64.5709 38.2049 64.534 38.2845C64.4972 38.3641 64.4792 38.4511 64.4815 38.5388C64.4815 38.7856 64.5874 38.9268 64.7287 38.9977C64.8701 39.1034 65.047 39.1736 65.2594 39.2446C65.4355 39.3155 65.5413 39.3502 65.6479 39.3857C65.7538 39.4567 65.7893 39.4914 65.7893 39.5978C65.7799 39.6508 65.7552 39.6999 65.7182 39.739C65.6189 39.7861 65.51 39.8099 65.4 39.8084C65.1876 39.8084 65.0803 39.739 65.0455 39.5978L64.4097 39.6326C64.4808 39.9503 64.7983 40.2327 65.4 40.2327C65.753 40.2327 66.0002 40.127 66.1778 39.9858C66.2547 39.9281 66.3171 39.8533 66.36 39.7674C66.4029 39.6814 66.4251 39.5867 66.425 39.4907C66.425 39.3148 66.3192 39.1381 66.1778 39.0317C66.035 38.9409 65.8803 38.87 65.7182 38.8211C65.471 38.7501 65.4 38.7139 65.2934 38.6799C65.1876 38.6437 65.1173 38.5728 65.1173 38.4678C65.1173 38.4331 65.1173 38.3969 65.1883 38.3621C65.2231 38.3259 65.3297 38.2912 65.4007 38.2912C65.5769 38.2912 65.6827 38.3969 65.7538 38.5033L66.3547 38.4686ZM69.0768 40.1987V37.9387H68.4411V40.1987H69.0768ZM73.0015 37.9387H71.0573V38.3629H71.7293V40.1987H72.3303V38.3629H73.0015V37.9387ZM77.1039 37.9387H76.3956L76.1484 38.4686C76.0774 38.6445 76.0071 38.8226 75.936 39.0332H75.9012C75.84 38.8365 75.757 38.6471 75.654 38.4686L75.4416 37.9387H74.7348L75.6178 39.4212V40.1994H76.2187V39.4212L77.1039 37.9387ZM82.5125 40.1987V37.9387H81.9116V40.1987H82.5125ZM86.1538 39.5276C86.0465 39.2446 85.8356 38.7147 85.4818 37.9387H84.5989V40.1994H85.1998C85.1998 39.4212 85.1636 38.8913 85.1636 38.6105C85.2694 38.892 85.4818 39.3872 85.8356 40.1994H86.6837V37.9387H86.1168C86.1175 38.7154 86.1176 39.2446 86.1538 39.5276ZM92.9057 39.4914C92.8362 39.1389 92.6948 38.7147 92.4824 37.9379H91.4921V40.1987H92.0931C92.0931 39.3155 92.0568 38.7509 92.0568 38.3969H92.0931C92.1641 38.7509 92.3766 39.3148 92.6237 40.1987H93.2247C93.5067 39.3155 93.6828 38.7509 93.7901 38.3969V40.1987H94.3556V37.9379H93.4016C93.1544 38.7147 93.013 39.1389 92.942 39.4914H92.9057ZM97.7149 39.6695L97.8562 40.1994H98.5268L97.7489 37.9387H96.9008L96.1592 40.1994H96.8297L96.937 39.6695H97.7149ZM97.6083 39.2446H97.0791L97.185 38.7856C97.2198 38.6097 97.2908 38.4678 97.3263 38.2919C97.3974 38.4678 97.4322 38.6097 97.4677 38.7856L97.6083 39.2446ZM101.851 39.3155C102.17 39.2446 102.452 39.0687 102.452 38.6807C102.452 38.0458 101.816 37.9387 101.356 37.9387H100.402V40.1994H101.002V39.3865H101.215L101.78 40.1994H102.594L101.851 39.3155ZM101.002 38.9977V38.3629H101.357C101.675 38.3629 101.816 38.4686 101.816 38.6807C101.816 38.8913 101.64 38.9985 101.357 38.9985L101.002 38.9977ZM106.447 37.9387H105.775L105.528 38.4686C105.457 38.6445 105.352 38.8226 105.281 39.0332C105.21 38.8226 105.105 38.6452 105.034 38.4686L104.821 37.9387H104.114L104.963 39.4212V40.1994H105.598V39.4212L106.447 37.9387ZM109.983 39.7744H108.922V37.9387H108.32V40.1987H109.983V39.7744ZM113.235 39.6695L113.377 40.1994H114.049L113.306 37.9387H112.458L111.68 40.1994H112.352L112.492 39.6695H113.235ZM113.13 39.2446H112.599L112.74 38.7856C112.775 38.6097 112.811 38.4678 112.846 38.2919H112.882C112.917 38.4678 112.952 38.6097 112.988 38.7856L113.13 39.2446ZM117.407 39.5276C117.336 39.2446 117.089 38.7147 116.735 37.9387H115.887V40.1994H116.454V38.6105C116.56 38.892 116.772 39.3872 117.126 40.1994H117.974V37.9387H117.408C117.408 38.7154 117.408 39.2453 117.444 39.5276H117.407ZM120.943 40.1987C121.826 40.1987 122.109 39.7745 122.109 39.0325C122.109 38.3267 121.756 37.9387 120.908 37.9387H119.953V40.1994L120.943 40.1987ZM120.589 39.7744V38.3629H120.873C121.332 38.3629 121.473 38.6807 121.473 39.0687C121.473 39.5986 121.261 39.7744 120.908 39.7744H120.589Z" fill="#4B4B4B"/>
</svg>
