<svg width="177" height="213" viewBox="0 0 177 213" fill="none" xmlns="http://www.w3.org/2000/svg">
<path d="M69.0179 212.944C25.7579 212.944 0.213867 188.636 0.213867 151.968C0.213867 114.888 27.8179 91.8157 75.1979 88.1077L138.646 83.1637V77.3957C138.646 43.6117 118.458 31.6637 91.2659 31.6637C58.7179 31.6637 40.1779 46.0837 40.1779 70.3917H6.39386C6.39386 28.3677 41.0019 0.763672 92.9139 0.763672C142.766 0.763672 176.55 27.1317 176.55 81.5157V208H143.59L139.47 175.452C129.17 198.524 101.566 212.944 69.0179 212.944ZM80.1419 182.868C116.81 182.868 139.058 158.972 139.058 121.068V110.356L87.5579 114.476C53.3619 117.772 39.3539 130.956 39.3539 150.732C39.3539 172.156 55.0099 182.868 80.1419 182.868Z" fill="#F8F8F8"/>
</svg>
