<svg width="1410" height="399" viewBox="0 0 1410 399" fill="none" xmlns="http://www.w3.org/2000/svg">
<path d="M142.208 308.532C57.336 308.532 0.892 247.556 0.892 155.268C0.892 63.392 58.984 1.17999 144.268 1.17999C211.424 1.17999 262.924 41.144 274.048 102.12H230.788C219.664 63.392 186.292 39.908 143.032 39.908C82.88 39.908 43.328 85.228 43.328 154.856C43.328 224.484 82.88 269.804 143.032 269.804C186.704 269.804 221.312 246.32 232.436 209.652H275.284C262.512 268.98 209.364 308.532 142.208 308.532ZM354.916 303.588H316.188V0.767975H354.916V133.432C367.688 111.596 391.996 96.764 423.308 96.764C474.808 96.764 499.528 129.312 499.528 180.812V304H460.8V189.464C460.8 148.676 441.436 132.196 412.596 132.196C375.104 132.196 354.916 159.388 354.916 193.996V303.588ZM572.12 54.74C558.112 54.74 546.576 43.204 546.576 29.196C546.576 14.776 558.112 3.65199 572.12 3.65199C586.128 3.65199 597.664 14.776 597.664 29.196C597.664 43.204 586.128 54.74 572.12 54.74ZM553.168 304V102.532H591.896V304H553.168ZM686.849 304H648.121V102.532H683.141L687.261 133.432C700.033 110.36 725.577 96.764 754.005 96.764C807.153 96.764 831.461 129.312 831.461 180.812V304H792.733V189.464C792.733 148.676 773.781 132.196 744.117 132.196C707.861 132.196 686.849 158.152 686.849 197.292V304ZM944.018 308.944C900.758 308.944 875.214 284.636 875.214 247.968C875.214 210.888 902.818 187.816 950.198 184.108L1013.65 179.164V173.396C1013.65 139.612 993.458 127.664 966.266 127.664C933.718 127.664 915.178 142.084 915.178 166.392H881.394C881.394 124.368 916.002 96.764 967.914 96.764C1017.77 96.764 1051.55 123.132 1051.55 177.516V304H1018.59L1014.47 271.452C1004.17 294.524 976.566 308.944 944.018 308.944ZM955.142 278.868C991.81 278.868 1014.06 254.972 1014.06 217.068V206.356L962.558 210.476C928.362 213.772 914.354 226.956 914.354 246.732C914.354 268.156 930.01 278.868 955.142 278.868ZM1082.55 102.532H1112.22V70.396C1112.22 20.956 1139.41 0.767975 1176.08 0.767975C1183.49 0.767975 1192.14 1.17999 1199.97 2.41598V35.788H1182.67C1157.54 35.788 1150.94 48.56 1150.94 70.396V102.532H1198.74V135.08H1150.94V304H1112.22V135.08H1082.55V102.532ZM1215.37 394.228V362.504H1241.33C1259.87 362.504 1274.7 359.62 1284.18 334.076L1291.18 314.712L1210.02 102.532H1250.81L1309.31 264.86L1369.05 102.532H1409.01L1313.84 349.32C1300.25 383.928 1280.06 398.348 1249.16 398.348C1236.39 398.348 1225.67 396.7 1215.37 394.228Z" fill="#F8F8F8"/>
</svg>
